<svg xmlns="http://www.w3.org/2000/svg" width="1401.161" height="142.6" viewBox="0 0 1401.161 142.6"><path d="M120.4 141H0V1h119.6v17.8H61.2v37.8H114v17.2H61.2v49.4h59.2V141zm177.596 0h-61.2c-3.469-2-5.869-4.966-7.2-8.9-1.337-3.931-2-9.5-2-16.699V81c0-3.466-1.737-5.565-5.212-6.3-3.475-.731-8.275-1.101-14.387-1.101V141h-61.2V1h76c20.263 0 36.062 2.256 47.4 6.769 11.332 4.513 17 10.481 17 17.909v16.719c0 4.645-1.456 8.229-4.369 10.747-5.3 4.647-16.425 8.362-33.375 11.147 15.625 2.003 26.356 5.141 32.181 9.412 3.707 2.807 5.562 6.678 5.562 11.619v30.24c.531 4.943 1.062 8.682 1.6 11.219 1.862 7.878 4.931 12.619 9.2 14.219zm-70.401-91.959V26.159c0-3.446-1.737-5.534-5.212-6.266-3.475-.728-8.275-1.094-14.387-1.094V56.4c6.394 0 10.562-.197 12.512-.598 4.725-1.058 7.087-3.312 7.087-6.761zM438.39 18.8h-54v37.8h48.4v17.2h-48.4V141h-61.2V1h115.2v17.8zM678.785 141h-55.2V62.4L591.71 141h-42.25l-36.675-78.6V141h-48.4V1h79.6l27.8 72.6 25-72.6h82v140zm89.597 0h-61.2V1h61.2v140zm195.196 0h-66.399l-27.601-45-26.399 45h-58.801l48.4-79.6-36-60.4h58.8l22.4 40.6 24-40.6h55.6l-42 64.8 48 75.2zm163.595-23.8c0 8.134-6.736 14.399-20.199 18.8-13.469 4.4-30.601 6.6-51.4 6.6-20.801 0-37.738-2.065-50.801-6.199-14.137-4.531-21.199-10.866-21.199-19V27.2c0-8.8 5.331-15.4 16-19.8 12-4.932 30.8-7.4 56.4-7.4 23.462 0 41.199 2.369 53.199 7.1 12 4.734 18 11.369 18 19.9v90.2zm-61.199 1.784V23.216c0-1.472-.832-2.544-2.494-3.213s-4.301-1.003-7.9-1.003-6.307.334-8.105 1.003c-1.801.669-2.701 1.741-2.701 3.213v95.769c0 1.338.9 2.375 2.701 3.112 1.799.737 4.506 1.104 8.105 1.104s6.238-.366 7.9-1.104 2.494-1.775 2.494-3.113zm231.593-1.784c0 8.134-6.737 14.399-20.2 18.8-13.469 4.4-30.6 6.6-51.4 6.6-20.8 0-37.737-2.065-50.8-6.199-14.138-4.531-21.2-10.866-21.2-19V27.2c0-8.8 5.332-15.4 16-19.8 12-4.932 30.801-7.4 56.4-7.4 23.463 0 41.2 2.369 53.2 7.1 12 4.734 18 11.369 18 19.9v90.2zm-61.2 1.784V23.216c0-1.472-.831-2.544-2.494-3.213-1.662-.669-4.3-1.003-7.899-1.003-3.601 0-6.307.334-8.106 1.003s-2.7 1.741-2.7 3.213v95.769c0 1.338.9 2.375 2.7 3.112s4.506 1.104 8.106 1.104c3.6 0 6.237-.366 7.899-1.104 1.663-.738 2.494-1.775 2.494-3.113zM1401.161 141h-61.2V38.2h-23.601V18c7.719 0 14.976-1.865 21.763-5.6 6.788-3.731 10.182-7.531 10.182-11.4h52.856v140z" fill="#E6E6E6"/></svg>