<svg xmlns="http://www.w3.org/2000/svg" width="1915.367" height="400.389" viewBox="0 0 1915.367 400.389"><path fill="#E6E6E6" d="M127.699 336.286l-18.208 2.236-6.751-54.988-26.826 3.294-1.397-11.379 70.888-8.704 1.397 11.38-25.855 3.175zm201.605-80.57l-21.97 2.698 2.124 17.298 21.97-2.697c7.525-.925 12.733-2.673 11.783-10.411-.906-7.375-6.26-7.827-13.907-6.888m14.69 35.346c-.682-5.555-4.372-7.503-12.262-6.535l-20.877 2.563 3.23 26.311-18.207 2.236-8.149-66.367 47.461-5.828c19.056-2.339 25.087 7.64 25.993 15.014.995 8.103-3.323 14.084-12.918 18.221 11.736 2.255 12.333 3.105 15.222 22.619.358 2.913 1.618 4.145 4.555 4.985l.302 2.458-19.544 2.4c-2.697-2.904-3.428-4.849-4.188-11.037-.604-4.916-.272-4.217-.618-7.04m192.491-56.441l-8.345 27.362 23.063-2.832-14.718-24.53zm-12.047 39.367l-4.305 14.113-18.571 2.281 23.29-70.228 20.149-2.474 38.738 62.61-18.693 2.296-7.469-12.668-33.139 4.07zm271.176-19.711l-21.607 2.653-19.821-20.947-14.045 25.105-21.12 2.594 23.816-36.84-30.994-29.646 21.607-2.653 18.219 19.94 13.583-23.845 21.12-2.593-23.321 35.852zM957.6 234.388l-18.208 2.236-8.148-66.367 27.189-3.339 22.506 50.834 9.055-54.709 27.433-3.368 8.149 66.367-18.209 2.234-6.349-51.709-9.31 53.632-18.207 2.237-22.25-49.757zm242.793-81.284l-8.348 27.362 23.065-2.832-14.717-24.53zm-12.049 39.367l-4.301 14.113-18.572 2.28 23.287-70.226 20.151-2.476 38.737 62.611-18.691 2.295-7.472-12.667-33.139 4.07zm238.162-15.658l-18.207 2.236-6.751-54.987-26.826 3.293-1.399-11.378 70.888-8.705 1.397 11.379-25.854 3.175zm162.387-87.299l18.207-2.236 8.15 66.365-18.206 2.236zm193.028 43.66l-18.206 2.235-8.15-66.366 18.206-2.236 3.578 29.131 31.016-33.378 21.487-2.638-31.813 32.923 43.726 32.98-21.732 2.669-32.608-25.754-8.232 8.221z"/><path fill="#E6E6E6" d="M20.596 400.388L0 232.648l4.466-.549L1894.771 0l20.596 167.74L20.596 400.388zM10.03 240.484l18.402 149.874 1876.905-230.454-18.402-149.875L10.03 240.484z"/></svg>