<?xml version="1.0" encoding="utf-8"?>
<!-- Generator: Adobe Illustrator 15.1.0, SVG Export Plug-In . SVG Version: 6.00 Build 0)  -->
<!DOCTYPE svg PUBLIC "-//W3C//DTD SVG 1.1//EN" "http://www.w3.org/Graphics/SVG/1.1/DTD/svg11.dtd">
<svg version="1.1" id="Layer_1" xmlns="http://www.w3.org/2000/svg" xmlns:xlink="http://www.w3.org/1999/xlink" x="0px" y="0px"
	 width="1401.161px" height="142.6px" viewBox="0 0 1401.161 142.6" enable-background="new 0 0 1401.161 142.6"
	 xml:space="preserve">
<g>
	<path fill="#E6E6E6" d="M120.4,141H0V1h119.6v17.8H61.2v37.8H114v17.2H61.2v49.4h59.2V141z"/>
	<path fill="#E6E6E6" d="M297.996,141h-61.2c-3.469-2-5.869-4.966-7.2-8.9c-1.337-3.931-2-9.5-2-16.699V81
		c0-3.466-1.737-5.565-5.212-6.3c-3.475-0.731-8.275-1.101-14.387-1.101V141h-61.2V1h76c20.263,0,36.062,2.256,47.4,6.769
		c11.332,4.513,17,10.481,17,17.909v16.719c0,4.645-1.456,8.229-4.369,10.747c-5.3,4.647-16.425,8.362-33.375,11.147
		c15.625,2.003,26.356,5.141,32.181,9.412c3.707,2.807,5.562,6.678,5.562,11.619v30.24c0.531,4.943,1.062,8.682,1.6,11.219
		C290.658,134.659,293.727,139.4,297.996,141z M227.595,49.041V26.159c0-3.446-1.737-5.534-5.212-6.266
		c-3.475-0.728-8.275-1.094-14.387-1.094V56.4c6.394,0,10.562-0.197,12.512-0.598C225.233,54.744,227.595,52.49,227.595,49.041z"/>
	<path fill="#E6E6E6" d="M438.39,18.8h-54v37.8h48.4v17.2h-48.4V141h-61.2V1h115.2V18.8z"/>
	<path fill="#E6E6E6" d="M678.785,141h-55.2V62.4L591.71,141h-42.25l-36.675-78.6V141h-48.4V1h79.6l27.8,72.6l25-72.6h82V141z"/>
	<path fill="#E6E6E6" d="M768.382,141h-61.2V1h61.2V141z"/>
	<path fill="#E6E6E6" d="M963.578,141h-66.399l-27.601-45l-26.399,45h-58.801l48.4-79.6l-36-60.4h58.8l22.4,40.6l24-40.6h55.6
		l-42,64.8L963.578,141z"/>
	<path fill="#E6E6E6" d="M1127.173,117.2c0,8.134-6.736,14.399-20.199,18.8c-13.469,4.4-30.601,6.6-51.4,6.6
		c-20.801,0-37.738-2.065-50.801-6.199c-14.137-4.531-21.199-10.866-21.199-19V27.2c0-8.8,5.331-15.4,16-19.8
		c12-4.932,30.8-7.4,56.4-7.4c23.462,0,41.199,2.369,53.199,7.1c12,4.734,18,11.369,18,19.9V117.2z M1065.974,118.984V23.216
		c0-1.472-0.832-2.544-2.494-3.213s-4.301-1.003-7.9-1.003s-6.307,0.334-8.105,1.003c-1.801,0.669-2.701,1.741-2.701,3.213v95.769
		c0,1.338,0.9,2.375,2.701,3.112c1.799,0.737,4.506,1.104,8.105,1.104s6.238-0.366,7.9-1.104S1065.974,120.322,1065.974,118.984z"/>
	<path fill="#E6E6E6" d="M1297.567,117.2c0,8.134-6.737,14.399-20.2,18.8c-13.469,4.4-30.6,6.6-51.4,6.6
		c-20.8,0-37.737-2.065-50.8-6.199c-14.138-4.531-21.2-10.866-21.2-19V27.2c0-8.8,5.332-15.4,16-19.8c12-4.932,30.801-7.4,56.4-7.4
		c23.463,0,41.2,2.369,53.2,7.1c12,4.734,18,11.369,18,19.9V117.2z M1236.367,118.984V23.216c0-1.472-0.831-2.544-2.494-3.213
		c-1.662-0.669-4.3-1.003-7.899-1.003c-3.601,0-6.307,0.334-8.106,1.003s-2.7,1.741-2.7,3.213v95.769c0,1.338,0.9,2.375,2.7,3.112
		s4.506,1.104,8.106,1.104c3.6,0,6.237-0.366,7.899-1.104C1235.536,121.359,1236.367,120.322,1236.367,118.984z"/>
	<path fill="#E6E6E6" d="M1401.161,141h-61.2V38.2h-23.601V18c7.719,0,14.976-1.865,21.763-5.6
		c6.788-3.731,10.182-7.531,10.182-11.4h52.856V141z"/>
</g>
</svg>
