<?xml version="1.0" encoding="utf-8"?>
<!-- Generator: Adobe Illustrator 15.1.0, SVG Export Plug-In . SVG Version: 6.00 Build 0)  -->
<!DOCTYPE svg PUBLIC "-//W3C//DTD SVG 1.1//EN" "http://www.w3.org/Graphics/SVG/1.1/DTD/svg11.dtd">
<svg version="1.1" id="Layer_1" xmlns="http://www.w3.org/2000/svg" xmlns:xlink="http://www.w3.org/1999/xlink" x="0px" y="0px"
	 width="1915.367px" height="400.389px" viewBox="0 0 1915.367 400.389" enable-background="new 0 0 1915.367 400.389"
	 xml:space="preserve">
<polygon fill="#E6E6E6" points="127.699,336.286 109.491,338.522 102.74,283.534 75.914,286.828 74.517,275.449 145.405,266.745 
	146.802,278.125 120.947,281.3 "/>
<path fill="#E6E6E6" d="M329.304,255.716l-21.97,2.698l2.124,17.298l21.97-2.697c7.525-0.925,12.733-2.673,11.783-10.411
	C342.305,255.229,336.951,254.777,329.304,255.716 M343.994,291.062c-0.682-5.555-4.372-7.503-12.262-6.535l-20.877,2.563
	l3.23,26.311l-18.207,2.236l-8.149-66.367l47.461-5.828c19.056-2.339,25.087,7.64,25.993,15.014
	c0.995,8.103-3.323,14.084-12.918,18.221c11.736,2.255,12.333,3.105,15.222,22.619c0.358,2.913,1.618,4.145,4.555,4.985l0.302,2.458
	l-19.544,2.4c-2.697-2.904-3.428-4.849-4.188-11.037C344.008,293.186,344.34,293.885,343.994,291.062"/>
<path fill="#E6E6E6" d="M536.485,234.621l-8.345,27.362l23.063-2.832L536.485,234.621z M524.438,273.988l-4.305,14.113
	l-18.571,2.281l23.29-70.228l20.149-2.474l38.738,62.61l-18.693,2.296l-7.469-12.668L524.438,273.988z"/>
<polygon fill="#E6E6E6" points="795.614,254.277 774.007,256.93 754.186,235.983 740.141,261.088 719.021,263.682 742.837,226.842 
	711.843,197.196 733.45,194.543 751.669,214.483 765.252,190.638 786.372,188.045 763.051,223.897 "/>
<polygon fill="#E6E6E6" points="957.6,234.388 939.392,236.624 931.244,170.257 958.433,166.918 980.939,217.752 989.994,163.043 
	1017.427,159.675 1025.576,226.042 1007.367,228.276 1001.018,176.567 991.708,230.199 973.501,232.436 951.251,182.679 "/>
<path fill="#E6E6E6" d="M1200.393,153.104l-8.348,27.362l23.065-2.832L1200.393,153.104z M1188.344,192.471l-4.301,14.113
	l-18.572,2.28l23.287-70.226l20.151-2.476l38.737,62.611l-18.691,2.295l-7.472-12.667L1188.344,192.471z"/>
<polygon fill="#E6E6E6" points="1426.506,176.813 1408.299,179.049 1401.548,124.062 1374.722,127.355 1373.323,115.977 
	1444.211,107.272 1445.608,118.651 1419.754,121.826 "/>
<rect x="1592.967" y="88.132" transform="matrix(0.9925 -0.1219 0.1219 0.9925 -2.8696 196.226)" fill="#E6E6E6" width="18.344" height="66.866"/>
<polygon fill="#E6E6E6" points="1781.921,133.174 1763.715,135.409 1755.565,69.043 1773.771,66.807 1777.349,95.938 
	1808.365,62.56 1829.852,59.922 1798.039,92.845 1841.765,125.825 1820.033,128.494 1787.425,102.74 1779.193,110.961 "/>
<g>
	<path fill="#E6E6E6" d="M20.596,400.388L0,232.648l4.466-0.549L1894.771,0l20.596,167.74L20.596,400.388z M10.03,240.484
		l18.402,149.874l1876.905-230.454l-18.402-149.875L10.03,240.484z"/>
</g>
</svg>
